<svg width="705" height="166" viewBox="0 0 705 166" fill="none" xmlns="http://www.w3.org/2000/svg">
<path d="M73.1699 51.2819L83.7525 87.2628C84.9524 91.3425 88.143 94.533 92.2227 95.7329L128.204 106.316L92.061 117.477C88.0721 118.709 84.9607 121.85 83.7666 125.85L73.1699 161.349L61.9923 125.687C60.7673 121.779 57.7064 118.718 53.7981 117.493L18.1362 106.316L53.6351 95.7189C57.6355 94.5247 60.7763 91.4134 62.0082 87.4245L73.1699 51.2819Z" fill="url(#paint0_linear_71_45)"/>
<path d="M28.7676 0L34.2994 18.8082C34.9267 20.9408 36.5944 22.6086 38.727 23.2358L57.5352 28.7676L38.6425 34.6021C36.5574 35.2461 34.931 36.8879 34.3068 38.979L28.7676 57.5352L22.9248 38.8938C22.2844 36.8508 20.6844 35.2508 18.6414 34.6104L0 28.7676L18.5562 23.2284C20.6473 22.6042 22.2892 20.9778 22.9331 18.8927L28.7676 0Z" fill="#FC7449"/>
<path d="M121.637 35.647L126.267 51.3887C126.792 53.1735 128.188 54.5694 129.972 55.0944L145.714 59.7243L129.902 64.6075C128.156 65.1465 126.795 66.5206 126.273 68.2707L121.637 83.8015L116.747 68.1995C116.211 66.4896 114.872 65.1504 113.162 64.6145L97.5596 59.7243L113.09 55.0882C114.841 54.5658 116.215 53.2046 116.754 51.4594L121.637 35.647Z" fill="#00A4FF"/>
<path d="M217.264 138.96C207.088 138.96 198.992 137.008 192.976 133.104C187.024 129.2 183.856 123.696 183.472 116.592H194.992C195.376 122.48 197.36 126.768 200.944 129.456C204.592 132.144 209.968 133.488 217.072 133.488C223.024 133.488 227.472 132.432 230.416 130.32C233.424 128.208 234.928 125.136 234.928 121.104C234.928 118.864 234.384 116.944 233.296 115.344C232.208 113.744 230.192 112.304 227.248 111.024C224.304 109.744 220.08 108.56 214.576 107.472C205.936 105.744 198.864 103.376 193.36 100.368C187.92 97.36 185.2 93.008 185.2 87.312C185.2 81.04 188.08 76.592 193.84 73.968C199.6 71.28 207.024 69.936 216.112 69.936C225.968 69.936 233.488 71.6 238.672 74.928C243.856 78.256 246.736 82.768 247.312 88.464H235.984C235.088 83.792 232.944 80.464 229.552 78.48C226.16 76.432 221.488 75.408 215.536 75.408C210.096 75.408 206.032 76.336 203.344 78.192C200.656 79.984 199.312 82.352 199.312 85.296C199.312 86.96 199.792 88.432 200.752 89.712C201.712 90.992 203.568 92.208 206.32 93.36C209.136 94.512 213.2 95.664 218.512 96.816C225.616 98.352 231.28 99.92 235.504 101.52C239.728 103.12 243.056 105.36 245.488 108.24C247.92 111.12 249.136 114.896 249.136 119.568C249.136 123.6 247.824 127.088 245.2 130.032C242.576 132.912 238.864 135.12 234.064 136.656C229.264 138.192 223.664 138.96 217.264 138.96ZM261.028 72.432H273.508V99.12C274.98 96.304 277.284 94.096 280.42 92.496C283.556 90.832 287.076 90 290.98 90C297.188 90 302.084 91.6 305.668 94.8C309.252 97.936 311.044 102.256 311.044 107.76V138H298.564V106.896C298.564 102.928 297.636 99.888 295.78 97.776C293.924 95.664 291.204 94.608 287.62 94.608C283.332 94.608 279.908 96.176 277.348 99.312C274.788 102.384 273.508 106.48 273.508 111.6V138H261.028V72.432ZM349.875 138.96C344.051 138.96 338.963 137.968 334.611 135.984C330.323 134 326.995 131.184 324.627 127.536C322.323 123.824 321.171 119.472 321.171 114.48C321.171 109.488 322.323 105.168 324.627 101.52C326.995 97.808 330.323 94.96 334.611 92.976C338.963 90.992 344.051 90 349.875 90C355.699 90 360.755 90.992 365.042 92.976C369.395 94.96 372.723 97.808 375.027 101.52C377.331 105.168 378.483 109.488 378.483 114.48C378.483 119.472 377.331 123.824 375.027 127.536C372.723 131.184 369.395 134 365.042 135.984C360.755 137.968 355.699 138.96 349.875 138.96ZM349.875 134.352C354.867 134.352 358.803 132.592 361.683 129.072C364.563 125.488 366.003 120.624 366.003 114.48C366.003 108.336 364.563 103.504 361.683 99.984C358.803 96.4 354.867 94.608 349.875 94.608C344.883 94.608 340.947 96.4 338.067 99.984C335.187 103.504 333.747 108.336 333.747 114.48C333.747 120.624 335.187 125.488 338.067 129.072C340.947 132.592 344.883 134.352 349.875 134.352ZM389.747 90.96H402.227V98.64C404.083 95.952 406.515 93.84 409.523 92.304C412.595 90.768 416.051 90 419.891 90C427.699 90 433.747 92.144 438.035 96.432C442.387 100.656 444.563 106.512 444.563 114C444.563 119.12 443.539 123.568 441.491 127.344C439.507 131.056 436.659 133.936 432.947 135.984C429.299 137.968 424.979 138.96 419.987 138.96C415.891 138.96 412.339 138.192 409.331 136.656C406.323 135.056 403.955 132.72 402.227 129.648V156.24H389.747V90.96ZM417.011 134.64C421.619 134.64 425.299 132.752 428.051 128.976C430.803 125.136 432.179 120.08 432.179 113.808C432.179 107.664 430.867 102.928 428.243 99.6C425.619 96.208 421.971 94.512 417.299 94.512C412.691 94.512 409.011 96.336 406.259 99.984C403.571 103.568 402.227 108.4 402.227 114.48C402.227 120.752 403.539 125.68 406.163 129.264C408.787 132.848 412.403 134.64 417.011 134.64ZM486.966 70.8H501.174V138H486.966V70.8ZM518.376 90.96H530.76V98.928C532.232 96.176 534.504 94 537.576 92.4C540.712 90.8 544.232 90 548.136 90C554.408 90 559.336 91.6 562.92 94.8C566.504 98 568.296 102.416 568.296 108.048V138H555.912V107.088C555.912 103.056 554.952 99.984 553.032 97.872C551.112 95.696 548.328 94.608 544.68 94.608C540.392 94.608 537 96.112 534.504 99.12C532.008 102.128 530.76 106.192 530.76 111.312V138H518.376V90.96ZM597.234 138.96C592.626 138.96 589.138 137.776 586.77 135.408C584.402 133.04 583.218 129.52 583.218 124.848V95.568H574.866L576.402 90.96H583.41L586.866 77.712H595.602V90.96H608.658L607.218 95.568H595.602V125.904C595.602 131.408 597.746 134.16 602.034 134.16C604.274 134.16 606.546 133.552 608.85 132.336V137.136C605.906 138.352 602.034 138.96 597.234 138.96ZM644.25 134.352C652.89 134.352 657.978 130.48 659.514 122.736H669.018C667.866 127.92 664.954 131.92 660.281 134.736C655.674 137.552 649.914 138.96 643.002 138.96C637.434 138.96 632.57 138 628.41 136.08C624.314 134.096 621.146 131.28 618.906 127.632C616.666 123.92 615.546 119.6 615.546 114.672C615.546 109.68 616.666 105.328 618.906 101.616C621.146 97.904 624.314 95.056 628.41 93.072C632.57 91.024 637.434 90 643.002 90C651.514 90 658.042 92.112 662.586 96.336C667.194 100.56 669.53 106.64 669.594 114.576H628.026V115.152C628.026 121.232 629.37 125.968 632.058 129.36C634.81 132.688 638.874 134.352 644.25 134.352ZM643.386 94.608C639.098 94.608 635.674 95.952 633.114 98.64C630.618 101.264 629.018 105.04 628.314 109.968H657.69C657.05 104.976 655.514 101.168 653.082 98.544C650.714 95.92 647.482 94.608 643.386 94.608ZM682.957 72.432H695.341V138H682.957V72.432Z" fill="white"/>
<defs>
<linearGradient id="paint0_linear_71_45" x1="73.1699" y1="51.2819" x2="73.1699" y2="161.349" gradientUnits="userSpaceOnUse">
<stop stop-color="#00A4FF"/>
<stop offset="0.7292" stop-color="#00EBB8"/>
</linearGradient>
</defs>
</svg>
