<svg width="146" height="162" viewBox="0 0 146 162" fill="none" xmlns="http://www.w3.org/2000/svg">
<path d="M73.1699 51.2819L83.7525 87.2628C84.9524 91.3425 88.143 94.533 92.2227 95.7329L128.204 106.316L92.061 117.477C88.0721 118.709 84.9607 121.85 83.7666 125.85L73.1699 161.349L61.9923 125.687C60.7673 121.779 57.7064 118.718 53.7981 117.493L18.1362 106.316L53.6351 95.7189C57.6355 94.5247 60.7763 91.4134 62.0082 87.4245L73.1699 51.2819Z" fill="url(#paint0_linear_71_47)"/>
<path d="M28.7676 0L34.2994 18.8082C34.9267 20.9408 36.5944 22.6086 38.727 23.2358L57.5352 28.7676L38.6425 34.6021C36.5574 35.2461 34.931 36.8879 34.3068 38.979L28.7676 57.5352L22.9248 38.8938C22.2844 36.8508 20.6844 35.2508 18.6414 34.6104L0 28.7676L18.5562 23.2284C20.6473 22.6042 22.2892 20.9778 22.9331 18.8927L28.7676 0Z" fill="#FC7449"/>
<path d="M121.637 35.647L126.267 51.3887C126.792 53.1735 128.188 54.5694 129.972 55.0944L145.714 59.7243L129.902 64.6075C128.156 65.1465 126.795 66.5206 126.273 68.2707L121.637 83.8015L116.747 68.1995C116.211 66.4896 114.872 65.1504 113.162 64.6145L97.5596 59.7243L113.09 55.0882C114.841 54.5658 116.215 53.2046 116.754 51.4594L121.637 35.647Z" fill="#00A4FF"/>
<defs>
<linearGradient id="paint0_linear_71_47" x1="73.1699" y1="51.2819" x2="73.1699" y2="161.349" gradientUnits="userSpaceOnUse">
<stop stop-color="#00A4FF"/>
<stop offset="0.7292" stop-color="#00EBB8"/>
</linearGradient>
</defs>
</svg>
